<?xml version="1.0" encoding="UTF-8"?>
<svg version="1.1" xmlns="http://www.w3.org/2000/svg" width="100" height="100">
<path d="M0 0 C33 0 66 0 100 0 C100 33 100 66 100 100 C67 100 34 100 0 100 C0 67 0 34 0 0 Z " fill="#000101" transform="translate(0,0)"/>
<path d="M0 0 C8.25 0 16.5 0 25 0 C25 33 25 66 25 100 C9.82 100 -5.36 100 -21 100 C-20.67 98.68 -20.34 97.36 -20 96 C-20.33 95.34 -20.66 94.68 -21 94 C-20.49271295 91.39572984 -19.91577008 88.87617716 -19.25 86.3125 C-19.07984375 85.61705078 -18.9096875 84.92160156 -18.734375 84.20507812 C-15.76037483 72.49495246 -15.76037483 72.49495246 -12.23828125 69.50390625 C-11.60277344 69.19324219 -10.96726562 68.88257812 -10.3125 68.5625 C-3.600871 64.80497658 2.48855229 58.87658509 6 52 C6.33524876 48.24870163 6.33524876 48.24870163 6 45 C5.67 45.66 5.34 46.32 5 47 C3.35 46.67 1.7 46.34 0 46 C-0.125 40.25 -0.125 40.25 1 38 C1.23939061 34.46233882 1.38290534 30.92570224 1.5234375 27.3828125 C2.02329533 23.83464137 2.77450829 22.67294507 5 20 C5.27585754 16.13799438 5.18391699 12.69974059 4 9 C3.01 9 2.02 9 1 9 C0.67 6.03 0.34 3.06 0 0 Z " fill="#000101" transform="translate(75,0)"/>
<path d="M0 0 C7.1464997 6.95843392 7.1464997 6.95843392 7.375 13.3125 C7.75591599 18.44806377 8.56696857 21.16308252 12 25 C12.99 25.33 13.98 25.66 15 26 C14.7525 24.96875 14.505 23.9375 14.25 22.875 C13.94217932 18.1037795 15.12343942 16.69843503 18 13 C18.69429379 11.6808418 19.37530495 10.35350594 20 9 C20.66 9.33 21.32 9.66 22 10 C22.66 6.7 23.32 3.4 24 0 C27 3 27 3 27.375 6.4375 C27 10 27 10 25.515625 11.77734375 C23.40256987 14.8761282 23.52235909 17.40999966 23.375 21.125 C23.08200456 27.83599089 23.08200456 27.83599089 22 30 C21.960008 31.99960012 21.95653201 34.00047242 22 36 C23.32 36.33 24.64 36.66 26 37 C26.33 36.01 26.66 35.02 27 34 C27.33 34 27.66 34 28 34 C28.68458421 39.37887596 28.33809547 42.14760795 25 46.5 C23.6932536 48.02321752 22.35880671 49.52303619 21 51 C20.32839844 51.75152344 19.65679687 52.50304688 18.96484375 53.27734375 C15.07795636 57.41886345 12.40807788 59.19730737 7 61 C5.54839062 64.01779872 5.54839062 64.01779872 5 67 C3.95812843 63.87438528 3.76156206 62.95319818 5 60 C6.31647119 59.30062468 7.65022151 58.63270867 9 58 C9.33 57.01 9.66 56.02 10 55 C8.906875 54.731875 7.81375 54.46375 6.6875 54.1875 C2.02516295 52.68606943 2.02516295 52.68606943 0 50 C-0.7452875 46.59132074 -0.70149196 43.41501511 0 40 C1.80389506 37.63663603 3.4302619 36.60608631 6 35 C5.525625 34.62875 5.05125 34.2575 4.5625 33.875 C2.47794198 31.37353038 2.35378509 29.18406582 2 26 C5.68754757 26.49831724 7.60490662 27.10067643 10 30 C6.0040102 24.58707049 6.0040102 24.58707049 0 22 C-7.76118431 20.98827419 -13.47032341 22.74672443 -20 27 C-22.58401105 29.12697508 -23.43164359 30.70353282 -24 34 C-23.33613281 33.96519531 -22.67226563 33.93039063 -21.98828125 33.89453125 C-12.73959196 33.61099479 -12.73959196 33.61099479 -9 37 C-6.7529595 40.57483715 -6.73020679 43.79025567 -7.390625 47.93359375 C-8.4332192 51.46905743 -10.29891502 54.48820939 -13 57 C-15.16796875 57.69140625 -15.16796875 57.69140625 -17 58 C-16.505 58.61875 -16.01 59.2375 -15.5 59.875 C-14 62 -14 62 -14 64 C-14.66 64 -15.32 64 -16 64 C-16 63.34 -16 62.68 -16 62 C-16.94101562 61.85304687 -17.88203125 61.70609375 -18.8515625 61.5546875 C-31.62189055 59.25444208 -31.62189055 59.25444208 -36 53 C-36.875 50.125 -36.875 50.125 -37 48 C-35.02 48.33 -33.04 48.66 -31 49 C-31.26656572 46.06556598 -31.26656572 46.06556598 -32 43 C-32.99 42.34 -33.98 41.68 -35 41 C-35.2208564 38.04935852 -35.28060989 35.31631769 -35.1875 32.375 C-35.17396484 31.57320312 -35.16042969 30.77140625 -35.14648438 29.9453125 C-35.11109051 27.96325622 -35.05728234 25.98154449 -35 24 C-32.53199953 25.15173355 -30.95216435 26.04783565 -29 28 C-28.01 28 -27.02 28 -26 28 C-25.319375 26.515 -25.319375 26.515 -24.625 25 C-21.68589584 19.79267415 -16.903214 16.2887411 -12 13 C-11.34 13 -10.68 13 -10 13 C-10 13.99 -10 14.98 -10 16 C-9.278125 15.690625 -8.55625 15.38125 -7.8125 15.0625 C-5.19692691 14.07439461 -2.74881018 13.4712246 0 13 C1.00392976 6.474566 1.00392976 6.474566 0 0 Z " fill="#266E4A" transform="translate(54,10)"/>
<path d="M0 0 C3.92650195 2.79217916 6.80884164 6.2587569 9.8125 10 C6.8125 10 6.8125 10 5.125 8.625 C3.8125 7 3.8125 7 3.8125 5 C1.3375 4.505 1.3375 4.505 -1.1875 4 C-0.8575 4.5775 -0.5275 5.155 -0.1875 5.75 C0.8125 8 0.8125 8 0.8125 12 C2.7925 12 4.7725 12 6.8125 12 C6.255625 12.2475 5.69875 12.495 5.125 12.75 C2.16550357 14.3497278 0.12658149 15.49829028 -2.1875 18 C-2.90976414 21.3286956 -3.116122 24.59981163 -3.1875 28 C-2.1975 28.33 -1.2075 28.66 -0.1875 29 C-0.1875 29.66 -0.1875 30.32 -0.1875 31 C2.1225 31.66 4.4325 32.32 6.8125 33 C6.4825 34.32 6.1525 35.64 5.8125 37 C3.8325 37.495 3.8325 37.495 1.8125 38 C1.93625 39.60875 1.93625 39.60875 2.0625 41.25 C2.0625 49.76367712 -1.69001 57.93251572 -6.1875 65 C-8.92711108 62.60184769 -10.18167949 60.19700327 -11.625 56.875 C-12.05167969 55.90046875 -12.47835937 54.9259375 -12.91796875 53.921875 C-13.54638672 52.47554687 -13.54638672 52.47554687 -14.1875 51 C-14.57550781 50.15953125 -14.96351562 49.3190625 -15.36328125 48.453125 C-17.14018931 44.60208062 -18.40283106 41.18490101 -19.1875 37 C-19.8475 36.67 -20.5075 36.34 -21.1875 36 C-20.40375 35.9175 -19.62 35.835 -18.8125 35.75 C-16.12976469 35.28360888 -16.12976469 35.28360888 -15.0625 33.375 C-14.77375 32.59125 -14.485 31.8075 -14.1875 31 C-13.630625 29.906875 -13.07375 28.81375 -12.5 27.6875 C-11.01425667 23.51326875 -11.12268367 21.25926531 -12.1875 17 C-13.89217916 13.70699334 -13.89217916 13.70699334 -17.2265625 13.26953125 C-18.40992188 13.11871094 -19.59328125 12.96789063 -20.8125 12.8125 C-22.00101563 12.65394531 -23.18953125 12.49539062 -24.4140625 12.33203125 C-25.32929688 12.22246094 -26.24453125 12.11289062 -27.1875 12 C-26.56165938 7.64822451 -25.50749219 5.83604864 -21.9140625 3.13671875 C-14.96348111 -1.43934275 -7.90955976 -2.48143051 0 0 Z " fill="#1D1C1D" transform="translate(57.1875,32)"/>
<path d="M0 0 C3.92650195 2.79217916 6.80884164 6.2587569 9.8125 10 C6.8125 10 6.8125 10 5.125 8.625 C3.8125 7 3.8125 7 3.8125 5 C1.3375 4.505 1.3375 4.505 -1.1875 4 C-0.8575 4.5775 -0.5275 5.155 -0.1875 5.75 C0.8125 8 0.8125 8 0.8125 12 C2.7925 12 4.7725 12 6.8125 12 C6.255625 12.2475 5.69875 12.495 5.125 12.75 C2.31028529 14.27146741 0.11364285 15.7610502 -2.1875 18 C-3.07343998 21.13863704 -3.07343998 21.13863704 -3.1875 24 C-5.875 24.0625 -5.875 24.0625 -9.1875 23 C-10.2421875 21 -10.2421875 21 -11.25 18.5625 C-12.32633316 16.03635498 -12.32633316 16.03635498 -14.1875 14 C-18.48542146 12.60579621 -22.6871843 12.2042603 -27.1875 12 C-26.56165938 7.64822451 -25.50749219 5.83604864 -21.9140625 3.13671875 C-14.96348111 -1.43934275 -7.90955976 -2.48143051 0 0 Z " fill="#221523" transform="translate(57.1875,32)"/>
<path d="M0 0 C0.33 1.32 0.66 2.64 1 4 C1.66 4 2.32 4 3 4 C3.99 5.485 3.99 5.485 5 7 C7.05925139 7.72382467 7.05925139 7.72382467 9 8 C8.84015625 8.52722656 8.6803125 9.05445313 8.515625 9.59765625 C7.87574687 12.57890664 7.79229398 15.38880912 7.75 18.4375 C7.72421875 19.54996094 7.6984375 20.66242187 7.671875 21.80859375 C8.04116938 25.40042121 8.71859727 27.212176 11 30 C13.23837799 31.01674712 13.23837799 31.01674712 15.6875 31.3125 C16.49574219 31.45300781 17.30398437 31.59351562 18.13671875 31.73828125 C18.75160156 31.82464844 19.36648437 31.91101563 20 32 C20.28875 31.38125 20.5775 30.7625 20.875 30.125 C22 28 22 28 24 26 C24.6425235 23.93125966 24.6425235 23.93125966 25 22 C23.35 21.67 21.7 21.34 20 21 C20 20.34 20 19.68 20 19 C21.65 18.34 23.3 17.68 25 17 C22.05696902 13.19753525 22.05696902 13.19753525 17.6640625 11.66796875 C15.4241967 11.68563331 13.22879201 11.78149098 11 12 C11.33 11.34 11.66 10.68 12 10 C21.92205323 9.41634981 21.92205323 9.41634981 26 13 C28.2470405 16.57483715 28.26979321 19.79025567 27.609375 23.93359375 C26.5667808 27.46905743 24.70108498 30.48820939 22 33 C19.83203125 33.69140625 19.83203125 33.69140625 18 34 C18.495 34.61875 18.99 35.2375 19.5 35.875 C21 38 21 38 21 40 C20.34 40 19.68 40 19 40 C19 39.34 19 38.68 19 38 C18.05898438 37.85304687 17.11796875 37.70609375 16.1484375 37.5546875 C3.37810945 35.25444208 3.37810945 35.25444208 -1 29 C-1.875 26.125 -1.875 26.125 -2 24 C-0.02 24.33 1.96 24.66 4 25 C3.73343428 22.06556598 3.73343428 22.06556598 3 19 C2.01 18.34 1.02 17.68 0 17 C-0.2208564 14.04935852 -0.28060989 11.31631769 -0.1875 8.375 C-0.17396484 7.57320312 -0.16042969 6.77140625 -0.14648438 5.9453125 C-0.11109051 3.96325622 -0.05728234 1.98154449 0 0 Z " fill="#2E8643" transform="translate(19,34)"/>
<path d="M0 0 C0.66 1.32 1.32 2.64 2 4 C3.8253125 3.87625 3.8253125 3.87625 5.6875 3.75 C9.08536589 3.73792943 9.96759056 3.9797441 13 5.875 C15 8 15 8 15 10 C13.35 10.66 11.7 11.32 10 12 C10 12.66 10 13.32 10 14 C11.65 14.33 13.3 14.66 15 15 C14.4981793 19.39093114 13.40443541 22.10622991 10 25 C6.74927214 25.46012141 4.09030185 25.08302322 1 24 C-2.39585273 21.01827565 -2.85490404 19.34466837 -3.3359375 14.88671875 C-3.51118198 8.93514674 -3.50282154 4.98943016 0 0 Z " fill="#186E27" transform="translate(29,41)"/>
<path d="M0 0 C0.33 2.64 0.66 5.28 1 8 C1.99 8.33 2.98 8.66 4 9 C1.57629138 11.49295743 -0.75219752 13.81868111 -3.5625 15.875 C-6.6898259 18.60138669 -8.0939403 21.32907021 -10 25 C-14.28690057 24.36490362 -15.14146853 23.08682517 -19 20 C-19 25.28 -19 30.56 -19 36 C-19.33 36 -19.66 36 -20 36 C-20.22333047 33.45886142 -20.42902091 30.91827416 -20.625 28.375 C-20.68945312 27.66214844 -20.75390625 26.94929688 -20.8203125 26.21484375 C-21.153062 21.68113175 -20.89611991 18.24835114 -19 14 C-17.1875 12.875 -17.1875 12.875 -15 12 C-10.68809677 8.79371299 -6.96861205 5.11443517 -3.3125 1.1875 C-2 0 -2 0 0 0 Z " fill="#010909" transform="translate(38,14)"/>
<path d="M0 0 C2 2 2 2 2.88671875 4.359375 C4.13113689 7.31104749 5.55785797 8.991047 7.8125 11.25 C8.47894531 11.93578125 9.14539063 12.6215625 9.83203125 13.328125 C12.25898217 15.19971958 13.98749914 15.64249553 17 16 C16.505 15.01 16.505 15.01 16 14 C15.8671875 12.125 15.8671875 12.125 15.875 10 C15.87113281 8.948125 15.87113281 8.948125 15.8671875 7.875 C16 6 16 6 17 4 C17.66 4 18.32 4 19 4 C19 11.59 19 19.18 19 27 C19.99 27.33 20.98 27.66 22 28 C21.54625 28.556875 21.0925 29.11375 20.625 29.6875 C18.96266232 32.05313439 17.97855457 34.29015658 17 37 C16.01 36.505 16.01 36.505 15 36 C15.02320313 35.32453125 15.04640625 34.6490625 15.0703125 33.953125 C15.08835938 33.06109375 15.10640625 32.1690625 15.125 31.25 C15.14820313 30.36828125 15.17140625 29.4865625 15.1953125 28.578125 C14.98260848 25.77043188 14.69158938 24.25545251 13 22 C10.59595262 21.08400573 10.59595262 21.08400573 7.875 20.75 C6.96492188 20.60046875 6.05484375 20.4509375 5.1171875 20.296875 C4.41851562 20.19890625 3.71984375 20.1009375 3 20 C2.34 17.36 1.68 14.72 1 12 C4.68754757 12.49831724 6.60490662 13.10067643 9 16 C5.0040102 10.58707049 5.0040102 10.58707049 -1 8 C-7.5885713 7.25893047 -12.32921936 8.11567527 -18.1875 11.22265625 C-19.0846875 11.60744141 -19.0846875 11.60744141 -20 12 C-20.66 11.67 -21.32 11.34 -22 11 C-17.25 7 -17.25 7 -15 7 C-15 6.34 -15 5.68 -15 5 C-14.08476563 4.97421875 -13.16953125 4.9484375 -12.2265625 4.921875 C-11.03804687 4.86515625 -9.84953125 4.8084375 -8.625 4.75 C-7.44164062 4.70359375 -6.25828125 4.6571875 -5.0390625 4.609375 C-1.88708247 4.34351201 -1.88708247 4.34351201 -0.5859375 1.953125 C-0.39257812 1.30859375 -0.19921875 0.6640625 0 0 Z " fill="#499444" transform="translate(55,24)"/>
<path d="M0 0 C2.475 0.495 2.475 0.495 5 1 C4.67 1.66 4.34 2.32 4 3 C4.27942455 4.67654729 4.60828247 6.34608154 5 8 C5.99 8.33 6.98 8.66 8 9 C8 9.66 8 10.32 8 11 C8.66 11 9.32 11 10 11 C12.26055108 21.88504489 8.9724002 31.82809969 3 41 C2.67 41 2.34 41 2 41 C1.08160362 36.2478707 0.79338686 31.58387946 0.68359375 26.7578125 C0.66281265 25.98944061 0.64203156 25.22106873 0.62062073 24.42941284 C0.55566531 21.99469233 0.49649362 19.55987153 0.4375 17.125 C0.3942633 15.4661358 0.35064743 13.80728144 0.30664062 12.1484375 C0.20003997 8.09905896 0.0986233 4.04958037 0 0 Z " fill="#2A202E" transform="translate(48,56)"/>
<path d="M0 0 C2.875 1.9375 2.875 1.9375 5 5 C5.40276286 8.04876188 5.29949079 10.94519396 5 14 C2.03 13.505 2.03 13.505 -1 13 C-1.33 14.32 -1.66 15.64 -2 17 C-3.32 17 -4.64 17 -6 17 C-6.99 17.33 -7.98 17.66 -9 18 C-11.08042748 16.30237118 -11.92215798 15.35602162 -12.50390625 12.6953125 C-12.65609963 6.01909633 -12.65609963 6.01909633 -10.86328125 3.234375 C-7.45215642 0.11870193 -4.47538847 -0.95221031 0 0 Z " fill="#07890F" transform="translate(66,45)"/>
<path d="M0 0 C0.66 0.66 1.32 1.32 2 2 C0.62714844 2.05607422 0.62714844 2.05607422 -0.7734375 2.11328125 C-1.96195313 2.17902344 -3.15046875 2.24476562 -4.375 2.3125 C-5.55835937 2.37050781 -6.74171875 2.42851563 -7.9609375 2.48828125 C-8.96382812 2.65714844 -9.96671875 2.82601562 -11 3 C-11.99 4.485 -11.99 4.485 -13 6 C-8.545 6.99 -8.545 6.99 -4 8 C-3.67 10.31 -3.34 12.62 -3 15 C-10.16562789 15.28100502 -16.94546999 14.20443195 -24 13 C-23.37415938 8.64822451 -22.31999219 6.83604864 -18.7265625 4.13671875 C-12.78757456 0.22666108 -7.0055692 -0.98615874 0 0 Z " fill="#1B1B1B" transform="translate(54,31)"/>
<path d="M0 0 C0.33 0 0.66 0 1 0 C1.68458421 5.37887596 1.33809547 8.14760795 -2 12.5 C-3.3067464 14.02321752 -4.64119329 15.52303619 -6 17 C-6.67160156 17.75152344 -7.34320313 18.50304687 -8.03515625 19.27734375 C-11.92204364 23.41886345 -14.59192212 25.19730737 -20 27 C-21.45160938 30.01779872 -21.45160938 30.01779872 -22 33 C-23.04187157 29.87438528 -23.23843794 28.95319818 -22 26 C-20.68352881 25.30062468 -19.34977849 24.63270867 -18 24 C-17.67 23.01 -17.34 22.02 -17 21 C-18.65 20.67 -20.3 20.34 -22 20 C-21.34 18.68 -20.68 17.36 -20 16 C-19.01 16.33 -18.02 16.66 -17 17 C-16.67 16.01 -16.34 15.02 -16 14 C-15.030625 14.165 -14.06125 14.33 -13.0625 14.5 C-11.04016429 14.85992293 -11.04016429 14.85992293 -9 15 C-8.71125 14.21625 -8.4225 13.4325 -8.125 12.625 C-7 10 -7 10 -5 8 C-5.99 8 -6.98 8 -8 8 C-8 6.35 -8 4.7 -8 3 C-7.01 3.33 -6.02 3.66 -5 4 C-1.72226496 3.24849977 -1.72226496 3.24849977 0 0 Z " fill="#237759" transform="translate(81,44)"/>
<path d="M0 0 C0.33 0 0.66 0 1 0 C1 1.98 1 3.96 1 6 C2.65 6 4.3 6 6 6 C6.33 7.65 6.66 9.3 7 11 C7.99 11.33 8.98 11.66 10 12 C10 12.66 10 13.32 10 14 C12.31 14.66 14.62 15.32 17 16 C16.75 17.875 16.75 17.875 16 20 C14.125 21.3125 14.125 21.3125 12 22 C11.01 21.67 10.02 21.34 9 21 C9.66 21 10.32 21 11 21 C11 20.01 11 19.02 11 18 C10.34 18 9.68 18 9 18 C9 17.34 9 16.68 9 16 C7.68 15.67 6.36 15.34 5 15 C4.61866701 13.0085944 4.28674418 11.00720923 4 9 C4.33 8.67 4.66 8.34 5 8 C3.68 7.67 2.36 7.34 1 7 C1.33 7.66 1.66 8.32 2 9 C2.203125 11.09375 2.203125 11.09375 2.25 13.5 C2.28867187 14.69109375 2.28867187 14.69109375 2.328125 15.90625 C2.21984375 16.5971875 2.1115625 17.288125 2 18 C1.01 18.66 0.02 19.32 -1 20 C-1 19.34 -1 18.68 -1 18 C-1.99 18 -2.98 18 -4 18 C-4 18.99 -4 19.98 -4 21 C-3.01 21.33 -2.02 21.66 -1 22 C-4.33333333 21.33333333 -7.66666667 20.66666667 -11 20 C-10.67 19.34 -10.34 18.68 -10 18 C-8.68 18 -7.36 18 -6 18 C-2.92149527 12.07979859 -0.6829455 6.69286586 0 0 Z " fill="#141818" transform="translate(47,49)"/>
<path d="M0 0 C2.875 2.0625 2.875 2.0625 5 5 C5.3125 8.8125 5.3125 8.8125 5 12 C4.01 12.33 3.02 12.66 2 13 C1.67 12.01 1.34 11.02 1 10 C-1.01508358 9.26676204 -1.01508358 9.26676204 -3 9 C-2.01 7.02 -1.02 5.04 0 3 C-1.65 4.65 -3.3 6.3 -5 8 C-5.33 6.35 -5.66 4.7 -6 3 C-9.24849977 4.72226496 -9.24849977 4.72226496 -10 8 C-9.01 8.33 -8.02 8.66 -7 9 C-7.66 10.32 -8.32 11.64 -9 13 C-9.66 13 -10.32 13 -11 13 C-12.462958 10.074084 -12.44523109 8.24382653 -12 5 C-8.31740373 0.96668028 -5.51753081 -1.17394272 0 0 Z " fill="#166625" transform="translate(66,45)"/>
<path d="M0 0 C0.33 0 0.66 0 1 0 C0.96519531 1.12148438 0.96519531 1.12148438 0.9296875 2.265625 C0.91164063 3.25046875 0.89359375 4.2353125 0.875 5.25 C0.85179687 6.22453125 0.82859375 7.1990625 0.8046875 8.203125 C1.00137219 11.0196498 1.55431084 12.60949036 3 15 C1.375 15.8125 1.375 15.8125 -1 16 C-2.98 14.35 -4.96 12.7 -7 11 C-7 16.28 -7 21.56 -7 27 C-7.33 27 -7.66 27 -8 27 C-8.22333047 24.45886142 -8.42902091 21.91827416 -8.625 19.375 C-8.68945312 18.66214844 -8.75390625 17.94929688 -8.8203125 17.21484375 C-9.15293486 12.68286412 -8.90413792 9.24369304 -7 5 C-5.0625 3.8125 -5.0625 3.8125 -3 3 C-1.98131338 2.01904252 -0.97648017 1.02297922 0 0 Z " fill="#133828" transform="translate(26,23)"/>
<path d="M0 0 C2.25 0.1875 2.25 0.1875 5 1 C6.37482707 2.63260714 7.70647667 4.30225062 9 6 C11.49552137 7.89942124 11.49552137 7.89942124 14 9 C14.66 8.67 15.32 8.34 16 8 C16.268125 9.134375 16.53625 10.26875 16.8125 11.4375 C17.204375 12.613125 17.59625 13.78875 18 15 C18.99 15.33 19.98 15.66 21 16 C20.54625 16.556875 20.0925 17.11375 19.625 17.6875 C17.96266232 20.05313439 16.97855457 22.29015658 16 25 C15.34 24.67 14.68 24.34 14 24 C14.03480469 22.98679687 14.03480469 22.98679687 14.0703125 21.953125 C14.08835937 21.06109375 14.10640625 20.1690625 14.125 19.25 C14.14820312 18.36828125 14.17140625 17.4865625 14.1953125 16.578125 C13.98260848 13.77043188 13.69158938 12.25545251 12 10 C9.59595262 9.08400573 9.59595262 9.08400573 6.875 8.75 C5.96492188 8.60046875 5.05484375 8.4509375 4.1171875 8.296875 C3.41851562 8.19890625 2.71984375 8.1009375 2 8 C1.34 5.36 0.68 2.72 0 0 Z " fill="#5A9752" transform="translate(56,36)"/>
<path d="M0 0 C0.53625 0.165 1.0725 0.33 1.625 0.5 C4.07776043 1.1355263 4.07776043 1.1355263 6.9375 0.75 C11.09171431 1.08911954 12.37163558 2.90780657 15 6 C13.35 6 11.7 6 10 6 C9.34 7.32 8.68 8.64 8 10 C6.35 9.01 4.7 8.02 3 7 C2.34 8.65 1.68 10.3 1 12 C0.34 12 -0.32 12 -1 12 C-0.67 9.69 -0.34 7.38 0 5 C-0.66 5 -1.32 5 -2 5 C-1.34 3.35 -0.68 1.7 0 0 Z " fill="#1C8E32" transform="translate(29,44)"/>
<path d="M0 0 C9.92205323 -0.58365019 9.92205323 -0.58365019 14 3 C16.24621368 6.57352177 16.2773552 9.79239897 15.6015625 13.93359375 C14.5459605 17.55965517 12.79744248 20.45417933 10 23 C6.6875 23.9375 6.6875 23.9375 4 24 C4 23.34 4 22.68 4 22 C5.32 22 6.64 22 8 22 C8.28875 21.38125 8.5775 20.7625 8.875 20.125 C10 18 10 18 12 16 C12.6425235 13.93125966 12.6425235 13.93125966 13 12 C11.35 11.67 9.7 11.34 8 11 C8 10.34 8 9.68 8 9 C9.65 8.34 11.3 7.68 13 7 C10.05696902 3.19753525 10.05696902 3.19753525 5.6640625 1.66796875 C3.4241967 1.68563331 1.22879201 1.78149098 -1 2 C-0.67 1.34 -0.34 0.68 0 0 Z " fill="#3C6942" transform="translate(31,44)"/>
<path d="M0 0 C1.65 0.33 3.3 0.66 5 1 C3.625 2.5 3.625 2.5 2 4 C1.34 4 0.68 4 0 4 C0 4.66 0 5.32 0 6 C1.65 6.33 3.3 6.66 5 7 C4.67 8.32 4.34 9.64 4 11 C4 10.34 4 9.68 4 9 C2.01508358 9.26676204 2.01508358 9.26676204 0 10 C-0.33 10.99 -0.66 11.98 -1 13 C-1.66 13 -2.32 13 -3 13 C-3 11.68 -3 10.36 -3 9 C-4.98 9.33 -6.96 9.66 -9 10 C-9.125 6.625 -9.125 6.625 -9 3 C-8.34 2.34 -7.68 1.68 -7 1 C-5.35 1.99 -3.7 2.98 -2 4 C-1.34 2.68 -0.68 1.36 0 0 Z " fill="#028706" transform="translate(39,49)"/>
<path d="M0 0 C1.7074998 1.28062485 3.37373596 2.61767557 5 4 C5 4.66 5 5.32 5 6 C6.98 6 8.96 6 11 6 C10.443125 6.2475 9.88625 6.495 9.3125 6.75 C6.49778529 8.27146741 4.30114285 9.7610502 2 12 C1.11406002 15.13863704 1.11406002 15.13863704 1 18 C-0.98 17.67 -2.96 17.34 -5 17 C-5 14.36 -5 11.72 -5 9 C-3.35 9 -1.7 9 0 9 C0 6.03 0 3.06 0 0 Z " fill="#221F25" transform="translate(53,38)"/>
<path d="M0 0 C0.33 0 0.66 0 1 0 C1 1.98 1 3.96 1 6 C1.66 6 2.32 6 3 6 C3 7.65 3 9.3 3 11 C2.34 11 1.68 11 1 11 C1 17.6 1 24.2 1 31 C1.99 30.67 2.98 30.34 4 30 C3.39816251 32.02045442 2.72693904 34.02111039 2 36 C1.01 36.495 1.01 36.495 0 37 C-0.82984747 32.66040044 -1.12855847 28.55631288 -1.1328125 24.140625 C-1.13410156 22.86058594 -1.13539062 21.58054687 -1.13671875 20.26171875 C-1.13462402 19.60349121 -1.1325293 18.94526367 -1.13037109 18.26708984 C-1.12497813 16.24178711 -1.13035451 14.21670251 -1.13671875 12.19140625 C-1.13542969 10.91652344 -1.13414063 9.64164063 -1.1328125 8.328125 C-1.13168457 7.1618457 -1.13055664 5.99556641 -1.12939453 4.79394531 C-1 2 -1 2 0 0 Z " fill="#5B3E5C" transform="translate(50,60)"/>
<path d="M0 0 C2.46278801 2.46278801 2.99771255 4.70676982 4 8 C3.02160156 7.95359375 2.04320313 7.9071875 1.03515625 7.859375 C-6.12067327 7.66236101 -11.95897521 7.59964883 -18.36328125 11.22265625 C-18.90339844 11.47917969 -19.44351563 11.73570313 -20 12 C-20.66 11.67 -21.32 11.34 -22 11 C-17.25 7 -17.25 7 -15 7 C-15 6.34 -15 5.68 -15 5 C-14.08476563 4.97421875 -13.16953125 4.9484375 -12.2265625 4.921875 C-11.03804687 4.86515625 -9.84953125 4.8084375 -8.625 4.75 C-7.44164062 4.70359375 -6.25828125 4.6571875 -5.0390625 4.609375 C-1.88708247 4.34351201 -1.88708247 4.34351201 -0.5859375 1.953125 C-0.39257812 1.30859375 -0.19921875 0.6640625 0 0 Z " fill="#57B74E" transform="translate(55,24)"/>
<path d="M0 0 C1.05864258 -0.00193359 1.05864258 -0.00193359 2.13867188 -0.00390625 C2.85603516 -0.0090625 3.57339844 -0.01421875 4.3125 -0.01953125 C8.17565721 0.14187223 10.06395048 0.53246484 13.28320312 2.828125 C15.23950321 5.06641429 16.91709767 7.2652602 18.45117188 9.80859375 C15.45117188 9.80859375 15.45117188 9.80859375 13.76367188 8.43359375 C12.45117188 6.80859375 12.45117188 6.80859375 12.45117188 4.80859375 C9.97617187 4.31359375 9.97617187 4.31359375 7.45117188 3.80859375 C7.12117188 4.46859375 6.79117188 5.12859375 6.45117188 5.80859375 C5.79117188 5.14859375 5.13117187 4.48859375 4.45117188 3.80859375 C2.10294272 3.78690157 2.10294272 3.78690157 -0.48632812 4.18359375 C-3.22766419 4.53080274 -5.78067198 4.80859375 -8.54882812 4.80859375 C-6.47366681 0.84113974 -4.39102204 0.2189196 0 0 Z " fill="#262225" transform="translate(48.548828125,32.19140625)"/>
<path d="M0 0 C2.33944736 0.28730055 4.6739143 0.61936779 7 1 C7.33 3.31 7.66 5.62 8 8 C6.741875 8.020625 5.48375 8.04125 4.1875 8.0625 C3.47980469 8.07410156 2.77210937 8.08570313 2.04296875 8.09765625 C0 8 0 8 -3 7 C-1.125 1.125 -1.125 1.125 0 0 Z " fill="#110D12" transform="translate(43,38)"/>
<path d="M0 0 C0.33 0 0.66 0 1 0 C1.02578125 0.72445313 1.0515625 1.44890625 1.078125 2.1953125 C1.43710815 8.31434345 1.85414493 12.36639728 6 17 C6.99 17.33 7.98 17.66 9 18 C8.773125 16.9275 8.54625 15.855 8.3125 14.75 C8 11 8 11 11 7 C10.67 11.62 10.34 16.24 10 21 C2.09090909 18.36363636 2.09090909 18.36363636 -1 14 C-1.68472236 9.19916256 -1.31207818 4.65680205 0 0 Z " fill="#1E5B4A" transform="translate(60,18)"/>
<path d="M0 0 C0.34372111 2.8872573 0.50436056 5.11888819 -0.97265625 7.69921875 C-2.85978303 10.0826541 -4.44318343 11.78931265 -7.3125 12.875 C-7.869375 12.91625 -8.42625 12.9575 -9 13 C-9.4375 9.875 -9.4375 9.875 -9 6 C-6.67578455 3.18776031 -3.81201966 0 0 0 Z " fill="#235B48" transform="translate(38,14)"/>
<path d="M0 0 C2.475 0.495 2.475 0.495 5 1 C5 1.99 5 2.98 5 4 C6.093125 4.639375 7.18625 5.27875 8.3125 5.9375 C9.23482422 6.47697266 9.23482422 6.47697266 10.17578125 7.02734375 C12.13819555 8.13901247 12.13819555 8.13901247 15 9 C15.33 9.99 15.66 10.98 16 12 C11.06498846 11.97806662 7.19691805 11.76658059 3.5 8.25 C1.22580971 5.64913044 0.20707338 3.52024748 0 0 Z " fill="#20544C" transform="translate(17,58)"/>
<path d="M0 0 C2 2 4 4 6 6 C5.90913549 8.53541298 5.7629055 11.03554784 5.5625 13.5625 C5.51029297 14.27341797 5.45808594 14.98433594 5.40429688 15.71679688 C5.27425893 17.47821999 5.13773103 19.23916173 5 21 C4.34 20.67 3.68 20.34 3 20 C2.54550751 17.56415788 2.20358911 15.20727509 1.9375 12.75 C1.43783833 8.46364618 0.92424513 4.2204468 0 0 Z " fill="#216346" transform="translate(54,10)"/>
<path d="M0 0 C1.32 0.33 2.64 0.66 4 1 C3.875 2.875 3.875 2.875 3 5 C-1.32207132 7.11077902 -4.37301506 7.10166308 -9 6 C-9 4.68 -9 3.36 -9 2 C-7.02 1.67 -5.04 1.34 -3 1 C-3 2.32 -3 3.64 -3 5 C-2.34 5 -1.68 5 -1 5 C-0.67 3.35 -0.34 1.7 0 0 Z " fill="#1CA229" transform="translate(39,57)"/>
<path d="M0 0 C0.66 0.66 1.32 1.32 2 2 C0.62714844 2.07347656 0.62714844 2.07347656 -0.7734375 2.1484375 C-1.96195313 2.22320312 -3.15046875 2.29796875 -4.375 2.375 C-6.15003906 2.47941406 -6.15003906 2.47941406 -7.9609375 2.5859375 C-11.10562319 2.70217346 -11.10562319 2.70217346 -13 5 C-14.66072849 5.68132451 -16.327767 6.34742127 -18 7 C-21.16666667 8.83333333 -21.16666667 8.83333333 -23 12 C-22.72162928 8.6595514 -22.27974867 7.27974867 -19.875 4.875 C-13.35036286 0.61980186 -7.825296 -1.10154989 0 0 Z " fill="#132B10" transform="translate(54,31)"/>
<path d="M0 0 C0.6875 1.8125 0.6875 1.8125 1 4 C-0.94556941 6.76475653 -2.77856221 7.36380941 -6 8 C-7.53879581 8.11291505 -9.08212089 8.17459967 -10.625 8.1875 C-11.78902344 8.20876953 -11.78902344 8.20876953 -12.9765625 8.23046875 C-15 8 -15 8 -17 6 C-13.25 3 -13.25 3 -11 3 C-11 3.99 -11 4.98 -11 6 C-10.278125 5.690625 -9.55625 5.38125 -8.8125 5.0625 C-6.19692691 4.07439461 -3.74881018 3.4712246 -1 3 C-0.67 2.01 -0.34 1.02 0 0 Z " fill="#1D584B" transform="translate(55,20)"/>
<path d="M0 0 C0.515625 0.268125 1.03125 0.53625 1.5625 0.8125 C4.12335305 2.11256248 4.12335305 2.11256248 7.4375 3.25 C11.70591672 5.34676611 13.29774277 7.15133061 16 11 C16 11.66 16 12.32 16 13 C15.34 13 14.68 13 14 13 C14 12.34 14 11.68 14 11 C12.35 10.67 10.7 10.34 9 10 C8.67 8.68 8.34 7.36 8 6 C7.05125 5.87625 6.1025 5.7525 5.125 5.625 C2 5 2 5 0 3 C0 2.01 0 1.02 0 0 Z " fill="#46B758" transform="translate(24,61)"/>
<path d="M0 0 C2.475 0.495 2.475 0.495 5 1 C4.67 1.66 4.34 2.32 4 3 C4.24680201 5.56740432 4.24680201 5.56740432 5 8 C5.66 8.33 6.32 8.66 7 9 C7 11.64 7 14.28 7 17 C6.01 17 5.02 17 4 17 C4 18.98 4 20.96 4 23 C3.67 23 3.34 23 3 23 C3 20.36 3 17.72 3 15 C3.66 15 4.32 15 5 15 C5 13.35 5 11.7 5 10 C4.34 10 3.68 10 3 10 C2.49596232 8.70990357 1.99690074 7.41786211 1.5 6.125 C1.2215625 5.40570313 0.943125 4.68640625 0.65625 3.9453125 C0 2 0 2 0 0 Z " fill="#643463" transform="translate(48,56)"/>
<path d="M0 0 C7.50769231 -0.36923077 7.50769231 -0.36923077 10 1.5 C10.495 2.2425 10.495 2.2425 11 3 C6.44303797 6.92405063 6.44303797 6.92405063 3.8125 7.375 C2.9153125 7.684375 2.9153125 7.684375 2 8 C0.6954344 10.99615946 0.6954344 10.99615946 0 14 C-1.04187157 10.87438528 -1.23843794 9.95319818 0 7 C1.31647119 6.30062468 2.65022151 5.63270867 4 5 C4.33 4.01 4.66 3.02 5 2 C3.35 1.67 1.7 1.34 0 1 C0 0.67 0 0.34 0 0 Z " fill="#284D44" transform="translate(59,63)"/>
<path d="M0 0 C3.55936255 0.29661355 4.72686562 0.68669879 7.125 3.4375 C7.74375 4.283125 8.3625 5.12875 9 6 C9.99 6.66 10.98 7.32 12 8 C8.42355152 9.2380014 5.66305234 8.74926071 2 8 C1.34 5.36 0.68 2.72 0 0 Z " fill="#533955" transform="translate(56,36)"/>
<path d="M0 0 C0.66 0 1.32 0 2 0 C2.33 3.96 2.66 7.92 3 12 C2.01 12.495 2.01 12.495 1 13 C-1.68362626 9.19819614 -2.51735644 6.65620796 -2 2 C-1.34 1.34 -0.68 0.68 0 0 Z " fill="#3C8B51" transform="translate(73,3)"/>
<path d="M0 0 C0.33 0.66 0.66 1.32 1 2 C1.99 1.67 2.98 1.34 4 1 C5.125 3.3125 5.125 3.3125 6 6 C5.01 7.485 5.01 7.485 4 9 C2.35 8.67 0.7 8.34 -1 8 C-1.125 2.25 -1.125 2.25 0 0 Z " fill="#051510" transform="translate(76,38)"/>
<path d="M0 0 C0.763125 0.66 1.52625 1.32 2.3125 2 C4.84277939 4.29850538 4.84277939 4.29850538 8 4 C8.66 2.68 9.32 1.36 10 0 C10.66 0.99 11.32 1.98 12 3 C11.34 3.66 10.68 4.32 10 5 C9.30251417 6.31747324 8.63040043 7.64914193 8 9 C5.5625 8.1875 5.5625 8.1875 3 7 C2.67 6.01 2.34 5.02 2 4 C1.34 4 0.68 4 0 4 C0 2.68 0 1.36 0 0 Z " fill="#1E6345" transform="translate(20,34)"/>
<path d="M0 0 C2.60006143 3.14584691 4.06602051 6.27673526 5.5625 10.0625 C6.86471893 13.34441625 8.03574176 16.05361264 10 19 C10.125 21.6875 10.125 21.6875 10 24 C6.88228749 20.34672951 5.22264792 16.25142028 3.375 11.875 C2.75812016 10.43476402 2.14094622 8.99465396 1.5234375 7.5546875 C1.02070312 6.38164063 0.51796875 5.20859375 0 4 C-0.33 3.34 -0.66 2.68 -1 2 C-0.67 1.34 -0.34 0.68 0 0 Z " fill="#3B2A3B" transform="translate(40,72)"/>
<path d="M0 0 C1.7074998 1.28062485 3.37373596 2.61767557 5 4 C5 4.66 5 5.32 5 6 C6.98 6 8.96 6 11 6 C11 6.33 11 6.66 11 7 C9.9275 7.103125 8.855 7.20625 7.75 7.3125 C3.98253346 8.0032022 2.90317539 8.7742322 0 11 C-2.75 11.1875 -2.75 11.1875 -5 11 C-5 10.34 -5 9.68 -5 9 C-3.35 9 -1.7 9 0 9 C0 6.03 0 3.06 0 0 Z " fill="#392B3B" transform="translate(53,38)"/>
<path d="M0 0 C0.78375 0.495 1.5675 0.99 2.375 1.5 C4.78552327 3.16537965 4.78552327 3.16537965 7 3 C6.34 8.61 5.68 14.22 5 20 C4.67 20 4.34 20 4 20 C4 16.37 4 12.74 4 9 C3.34 9 2.68 9 2 9 C1.855625 8.071875 1.71125 7.14375 1.5625 6.1875 C1.07899889 2.99274889 1.07899889 2.99274889 0 0 Z " fill="#5BCA5F" transform="translate(20,40)"/>
<path d="M0 0 C1.98 0.66 3.96 1.32 6 2 C6.375 4.1875 6.375 4.1875 6 7 C4.16038352 8.99022836 2.20813852 10.38989899 0 12 C0.75 7.25 0.75 7.25 3 5 C2.01 5 1.02 5 0 5 C0 3.35 0 1.7 0 0 Z " fill="#2B9640" transform="translate(73,47)"/>
<path d="M0 0 C2.31 0 4.62 0 7 0 C6.67 1.98 6.34 3.96 6 6 C2.48283697 6 1.62878252 5.17554415 -1 3 C-0.67 2.01 -0.34 1.02 0 0 Z " fill="#20E53B" transform="translate(32,47)"/>
<path d="M0 0 C0.93423645 3.01031744 1.04449911 3.86650268 0 7 C0 8.32 0 9.64 0 11 C-1.65 11.33 -3.3 11.66 -5 12 C-4.35550393 8.98782888 -3.34977818 6.48344164 -1.9375 3.75 C-1.57527344 3.04359375 -1.21304688 2.3371875 -0.83984375 1.609375 C-0.56269531 1.07828125 -0.28554688 0.5471875 0 0 Z " fill="#110610" transform="translate(55,88)"/>
<path d="M0 0 C0.99 0.33 1.98 0.66 3 1 C3.33 3.31 3.66 5.62 4 8 C3.01 8 2.02 8 1 8 C1 7.34 1 6.68 1 6 C-0.32 5.67 -1.64 5.34 -3 5 C-2.01 3.35 -1.02 1.7 0 0 Z " fill="#1FDA33" transform="translate(66,49)"/>
<path d="M0 0 C1.33998047 0.06960937 1.33998047 0.06960937 2.70703125 0.140625 C3.60808594 0.17671875 4.50914063 0.2128125 5.4375 0.25 C6.46810547 0.31960937 6.46810547 0.31960937 7.51953125 0.390625 C7.51953125 1.050625 7.51953125 1.710625 7.51953125 2.390625 C5.9161157 2.72755285 4.3117657 3.06003593 2.70703125 3.390625 C1.81371094 3.57625 0.92039062 3.761875 0 3.953125 C-2.48046875 4.390625 -2.48046875 4.390625 -5.48046875 4.390625 C-3.17521711 0.50003419 -3.17521711 0.50003419 0 0 Z " fill="#372737" transform="translate(45.48046875,32.609375)"/>
<path d="M0 0 C0.33 0 0.66 0 1 0 C1.03738281 1.20398438 1.07476562 2.40796875 1.11328125 3.6484375 C1.17892928 5.22399011 1.24537701 6.79950954 1.3125 8.375 C1.34633789 9.56609375 1.34633789 9.56609375 1.38085938 10.78125 C1.47785075 12.86215581 1.72994825 14.93441332 2 17 C2.99 17.66 3.98 18.32 5 19 C3.125 19.625 3.125 19.625 1 20 C-1 18 -1 18 -1.13525391 16.12060547 C-1.08288574 15.37697754 -1.03051758 14.63334961 -0.9765625 13.8671875 C-0.925 13.06152344 -0.8734375 12.25585938 -0.8203125 11.42578125 C-0.75585938 10.58402344 -0.69140625 9.74226563 -0.625 8.875 C-0.56828125 8.02550781 -0.5115625 7.17601562 -0.453125 6.30078125 C-0.31149023 4.1998655 -0.15695674 2.09982666 0 0 Z " fill="#1E6F41" transform="translate(74,29)"/>
<path d="M0 0 C3 3 3 3 3.375 6.5 C3 10 3 10 1.5 11.9375 C1.005 12.288125 0.51 12.63875 0 13 C0 11.66666667 0 10.33333333 0 9 C-0.66 9 -1.32 9 -2 9 C-1.34 6.03 -0.68 3.06 0 0 Z " fill="#205848" transform="translate(78,10)"/>
<path d="M0 0 C2.97 0.495 2.97 0.495 6 1 C5.0625 3 5.0625 3 3 5 C-0.02534949 5.36475845 -2.96663814 5.22893297 -6 5 C-5.34 4.01 -4.68 3.02 -4 2 C-3.01 2.33 -2.02 2.66 -1 3 C-0.67 2.01 -0.34 1.02 0 0 Z " fill="#28A43A" transform="translate(65,58)"/>
<path d="M0 0 C0.33 0.99 0.66 1.98 1 3 C-0.4375 5.6875 -0.4375 5.6875 -2 8 C-1.34 8 -0.68 8 0 8 C0 10.97 0 13.94 0 17 C-0.99 16.34 -1.98 15.68 -3 15 C-3.83955976 10.34949739 -3.53943707 6.12382723 -1.5 1.875 C-1.005 1.25625 -0.51 0.6375 0 0 Z " fill="#0E601E" transform="translate(29,41)"/>
<path d="M0 0 C0.33 0 0.66 0 1 0 C1.06058594 0.75925781 1.12117188 1.51851562 1.18359375 2.30078125 C1.26738281 3.29464844 1.35117187 4.28851563 1.4375 5.3125 C1.55931641 6.79169922 1.55931641 6.79169922 1.68359375 8.30078125 C1.91812559 11.09375599 1.91812559 11.09375599 3 14 C1.68 14 0.36 14 -1 14 C-1.027193 12.41676312 -1.04648306 10.83338938 -1.0625 9.25 C-1.07410156 8.36828125 -1.08570313 7.4865625 -1.09765625 6.578125 C-1.00826198 4.2181162 -0.66912821 2.25501476 0 0 Z " fill="#1C4E42" transform="translate(60,18)"/>
<path d="M0 0 C0.33 0 0.66 0 1 0 C1 1.98 1 3.96 1 6 C1.66 6 2.32 6 3 6 C3 7.65 3 9.3 3 11 C2.34 11 1.68 11 1 11 C1 13.64 1 16.28 1 19 C0.67 19 0.34 19 0 19 C0 12.73 0 6.46 0 0 Z " fill="#B372B3" transform="translate(50,60)"/>
<path d="M0 0 C0.33 1.32 0.66 2.64 1 4 C0.67 3.34 0.34 2.68 0 2 C-0.99 2 -1.98 2 -3 2 C-3 2.99 -3 3.98 -3 5 C-2.01 5.33 -1.02 5.66 0 6 C-5 5 -5 5 -10 4 C-9.67 3.34 -9.34 2.68 -9 2 C-6.93359375 1.3671875 -6.93359375 1.3671875 -4.4375 0.875 C-3.61121094 0.70742187 -2.78492188 0.53984375 -1.93359375 0.3671875 C-0.97646484 0.18542969 -0.97646484 0.18542969 0 0 Z " fill="#091F09" transform="translate(46,65)"/>
<path d="M0 0 C0.33 0 0.66 0 1 0 C1 3.3 1 6.6 1 10 C0.01 10 -0.98 10 -2 10 C-2.1953125 3.9453125 -2.1953125 3.9453125 -2 2 C-1.34 1.34 -0.68 0.68 0 0 Z " fill="#367048" transform="translate(26,23)"/>
<path d="M0 0 C2 2 2 2 2.1953125 5.0390625 C2.17210937 6.22242188 2.14890625 7.40578125 2.125 8.625 C2.10695312 9.81351563 2.08890625 11.00203125 2.0703125 12.2265625 C2.04710937 13.14179688 2.02390625 14.05703125 2 15 C1.34 14.67 0.68 14.34 0 14 C-0.95067299 10.71585695 -1.10102197 9.30306592 0 6 C0.03920815 4.00038436 0.04443347 1.99950636 0 0 Z " fill="#359362" transform="translate(57,16)"/>
<path d="M0 0 C0.61488281 0.34933594 1.22976562 0.69867188 1.86328125 1.05859375 C2.67152344 1.51363281 3.47976562 1.96867187 4.3125 2.4375 C5.51326172 3.11619141 5.51326172 3.11619141 6.73828125 3.80859375 C9.06211429 5.11090548 9.06211429 5.11090548 12 6 C12 6.66 12 7.32 12 8 C8.26512223 7.5020163 6.18762365 7.12508244 3 5 C3 4.34 3 3.68 3 3 C2.01 2.67 1.02 2.34 0 2 C0 1.34 0 0.68 0 0 Z " fill="#16694D" transform="translate(20,61)"/>
<path d="M0 0 C0.33 0.99 0.66 1.98 1 3 C0.01 4.485 0.01 4.485 -1 6 C-1.45394552 8.27912938 -1.45394552 8.27912938 -1.625 10.6875 C-1.69976562 11.49574219 -1.77453125 12.30398437 -1.8515625 13.13671875 C-1.90054688 13.75160156 -1.94953125 14.36648437 -2 15 C-2.33 15 -2.66 15 -3 15 C-4.28571429 6.42857143 -4.28571429 6.42857143 -3 3 C-2.34 3 -1.68 3 -1 3 C-0.67 2.01 -0.34 1.02 0 0 Z " fill="#2E7562" transform="translate(79,16)"/>
<path d="M0 0 C2.6875 -0.3125 2.6875 -0.3125 6 0 C8.875 2.5 8.875 2.5 11 5 C9.35 4.67 7.7 4.34 6 4 C6 3.34 6 2.68 6 2 C3.69 2 1.38 2 -1 2 C-0.67 1.34 -0.34 0.68 0 0 Z " fill="#136720" transform="translate(33,45)"/>
<path d="M0 0 C5.50366792 -0.32374517 9.43672206 -0.53286034 14 3 C13.67 3.99 13.34 4.98 13 6 C12.360625 5.34 11.72125 4.68 11.0625 4 C6.95535747 1.31778447 3.76620171 1.62618026 -1 2 C-0.67 1.34 -0.34 0.68 0 0 Z " fill="#696D6C" transform="translate(31,44)"/>
<path d="M0 0 C0 0.66 0 1.32 0 2 C-1.45381897 2.69699552 -2.91322953 3.38233866 -4.375 4.0625 C-5.18710937 4.44535156 -5.99921875 4.82820313 -6.8359375 5.22265625 C-7.55007812 5.47917969 -8.26421875 5.73570313 -9 6 C-9.66 5.67 -10.32 5.34 -11 5 C-4.87096774 0 -4.87096774 0 0 0 Z " fill="#60CD6F" transform="translate(44,30)"/>
<path d="M0 0 C0.33 0 0.66 0 1 0 C0.67 3.3 0.34 6.6 0 10 C-0.99 9.34 -1.98 8.68 -3 8 C-2.25 2.25 -2.25 2.25 0 0 Z " fill="#092419" transform="translate(23,26)"/>
<path d="M0 0 C1.98 0 3.96 0 6 0 C6 2.31 6 4.62 6 7 C3.95880212 5.38405168 1.95927063 3.7143618 0 2 C0 1.34 0 0.68 0 0 Z " fill="#55C54F" transform="translate(67,41)"/>
<path d="M0 0 C0.66 0 1.32 0 2 0 C2 2.64 2 5.28 2 8 C1.01 8.33 0.02 8.66 -1 9 C-1.125 2.25 -1.125 2.25 0 0 Z " fill="#56CD64" transform="translate(72,28)"/>
<path d="M0 0 C0.33 0 0.66 0 1 0 C1.04898437 0.73605469 1.09796875 1.47210938 1.1484375 2.23046875 C1.22320313 3.20628906 1.29796875 4.18210937 1.375 5.1875 C1.44460937 6.15042969 1.51421875 7.11335938 1.5859375 8.10546875 C2.00215853 11.01508938 2.79874096 13.32890774 4 16 C1.4375 14.75 1.4375 14.75 -1 12 C-1.15164183 7.92733363 -0.63807354 4.01796803 0 0 Z " fill="#388C30" transform="translate(25,48)"/>
<path d="M0 0 C0.66 0 1.32 0 2 0 C2 0.66 2 1.32 2 2 C2.99 2.33 3.98 2.66 5 3 C4.34 4.32 3.68 5.64 3 7 C2.34 7 1.68 7 1 7 C0.67 4.69 0.34 2.38 0 0 Z " fill="#2FDC45" transform="translate(54,51)"/>
<path d="M0 0 C2.475 0.495 2.475 0.495 5 1 C5.33 2.98 5.66 4.96 6 7 C5.34 7 4.68 7 4 7 C0 2.52941176 0 2.52941176 0 0 Z " fill="#975A99" transform="translate(56,36)"/>
<path d="M0 0 C2.375 0.6875 2.375 0.6875 5 2 C6.3125 4.625 6.3125 4.625 7 7 C6.34 7 5.68 7 5 7 C5 6.34 5 5.68 5 5 C3.35 4.67 1.7 4.34 0 4 C0 2.68 0 1.36 0 0 Z " fill="#4AA25F" transform="translate(33,67)"/>
<path d="M0 0 C0.6875 1.8125 0.6875 1.8125 1 4 C-0.1875 5.75 -0.1875 5.75 -2 7 C-3.32 7 -4.64 7 -6 7 C-5.67 5.68 -5.34 4.36 -5 3 C-3.68 3 -2.36 3 -1 3 C-0.67 2.01 -0.34 1.02 0 0 Z " fill="#1C563C" transform="translate(55,20)"/>
<path d="M0 0 C1.74627478 2.61941217 2.38722388 4.03824877 3 7 C1.68 7.33 0.36 7.66 -1 8 C-1.93065133 5.39417629 -2.14917407 4.35801776 -1.0625 1.75 C-0.711875 1.1725 -0.36125 0.595 0 0 Z " fill="#09060D" transform="translate(42,80)"/>
<path d="M0 0 C1.65 0.33 3.3 0.66 5 1 C4.01 2.32 3.02 3.64 2 5 C0.68 4.67 -0.64 4.34 -2 4 C-1.34 2.68 -0.68 1.36 0 0 Z " fill="#276F4E" transform="translate(69,60)"/>
<path d="M0 0 C2.475 0.495 2.475 0.495 5 1 C4.67 3.31 4.34 5.62 4 8 C1 6 1 6 0.3125 2.875 C0.209375 1.92625 0.10625 0.9775 0 0 Z " fill="#3F2741" transform="translate(48,56)"/>
<path d="M0 0 C0.99 0.33 1.98 0.66 3 1 C2.54625 1.556875 2.0925 2.11375 1.625 2.6875 C-0.03733768 5.05313439 -1.02144543 7.29015658 -2 10 C-2.66 9.67 -3.32 9.34 -4 9 C-3.52418802 7.68628013 -3.04424851 6.37405454 -2.5625 5.0625 C-2.29566406 4.33160156 -2.02882813 3.60070313 -1.75390625 2.84765625 C-1 1 -1 1 0 0 Z " fill="#5BD568" transform="translate(74,51)"/>
<path d="M0 0 C1.24546405 2.49092811 0.7767578 3.41080733 0 6 C-1.32 6.33 -2.64 6.66 -4 7 C-4 5.35 -4 3.7 -4 2 C-2.68 1.34 -1.36 0.68 0 0 Z " fill="#3A875F" transform="translate(33,20)"/>
<path d="M0 0 C0 1.32 0 2.64 0 4 C-2.4375 3.625 -2.4375 3.625 -5 3 C-5.33 2.34 -5.66 1.68 -6 1 C-4 0 -4 0 0 0 Z " fill="#1BDF33" transform="translate(36,58)"/>
<path d="M0 0 C0.33 0.66 0.66 1.32 1 2 C1.99 1.67 2.98 1.34 4 1 C3.39816251 3.02045442 2.72693904 5.02111039 2 7 C1.01 7.495 1.01 7.495 0 8 C0 5.36 0 2.72 0 0 Z " fill="#A36BA6" transform="translate(50,89)"/>
<path d="M0 0 C2.16874252 0.50603992 3.99967627 0.99983813 6 2 C5.34 3.32 4.68 4.64 4 6 C3.67 5.01 3.34 4.02 3 3 C2.01 2.67 1.02 2.34 0 2 C0 1.34 0 0.68 0 0 Z " fill="#1F2328" transform="translate(38,69)"/>
<path d="M0 0 C0 1.65 0 3.3 0 5 C-1.65 4.67 -3.3 4.34 -5 4 C-5 3.34 -5 2.68 -5 2 C-2 0 -2 0 0 0 Z " fill="#2CD532" transform="translate(44,51)"/>
<path d="M0 0 C0.66 0 1.32 0 2 0 C2 1.65 2 3.3 2 5 C1.01 4.67 0.02 4.34 -1 4 C-1.33 5.32 -1.66 6.64 -2 8 C-2.125 5.125 -2.125 5.125 -2 2 C-1.34 1.34 -0.68 0.68 0 0 Z " fill="#2C5C46" transform="translate(73,3)"/>
<path d="M0 0 C0.99 0 1.98 0 3 0 C3 2.64 3 5.28 3 8 C0.37613513 4.93882432 0 4.26826873 0 0 Z " fill="#180912" transform="translate(46,82)"/>
<path d="M0 0 C0.66 0 1.32 0 2 0 C2 1.65 2 3.3 2 5 C0.68 5 -0.64 5 -2 5 C-1.125 1.125 -1.125 1.125 0 0 Z " fill="#018304" transform="translate(58,48)"/>
<path d="M0 0 C1.65 0 3.3 0 5 0 C4.01 1.98 3.02 3.96 2 6 C0 3 0 3 0 0 Z " fill="#2CDC46" transform="translate(60,47)"/>
<path d="M0 0 C3 3.875 3 3.875 3 5 C1.35 5 -0.3 5 -2 5 C-2.33 4.01 -2.66 3.02 -3 2 C-2.01 1.34 -1.02 0.68 0 0 Z " fill="#63E167" transform="translate(56,27)"/>
<path d="M0 0 C0.33 0.66 0.66 1.32 1 2 C-0.65 3.65 -2.3 5.3 -4 7 C-4 5.68 -4 4.36 -4 3 C-2 1.25 -2 1.25 0 0 Z " fill="#1B573C" transform="translate(34,16)"/>
</svg>
